<?xml version="1.0" encoding="UTF-8" standalone="no"?>
<!DOCTYPE svg PUBLIC "-//W3C//DTD SVG 1.1//EN" "http://www.w3.org/Graphics/SVG/1.1/DTD/svg11.dtd">
<!-- Generated by Microsoft Visio, SVG Export wage-determination-graph.svg Page-1 -->
<svg xmlns="http://www.w3.org/2000/svg" xmlns:xlink="http://www.w3.org/1999/xlink" xmlns:ev="http://www.w3.org/2001/xml-events"
		width="5.72706in" height="3.01575in" viewBox="0 0 412.349 217.134" xml:space="preserve" color-interpolation-filters="sRGB"
		class="st27">
	<style type="text/css">
	<![CDATA[
		.st1 {fill:#ebf1de;stroke:none;stroke-linecap:round;stroke-linejoin:round;stroke-width:0.72}
		.st2 {fill:#edcdcb;stroke:none;stroke-linecap:round;stroke-linejoin:round;stroke-width:0.72}
		.st3 {fill:#000000;font-family:Arial;font-size:1.00001em}
		.st4 {font-size:1em}
		.st5 {marker-end:url(#mrkr4-14);stroke:#000080;stroke-linecap:round;stroke-linejoin:round;stroke-width:0.72}
		.st6 {fill:#000080;fill-opacity:1;stroke:#000080;stroke-opacity:1;stroke-width:0.22222222222222}
		.st7 {fill:#5555ff;visibility:hidden}
		.st8 {stroke:none;stroke-linecap:round;stroke-linejoin:round;stroke-width:0.72}
		.st9 {fill:#000080;font-family:Calibri;font-size:0.833336em;font-weight:bold}
		.st10 {stroke:#ff0000;stroke-linecap:round;stroke-linejoin:round;stroke-width:2.16}
		.st11 {fill:#ffffff;stroke:none;stroke-linecap:butt;stroke-width:7.2}
		.st12 {fill:#ff0000;font-family:Arial;font-size:1.00001em;font-weight:bold}
		.st13 {stroke:#00b050;stroke-linecap:round;stroke-linejoin:round;stroke-width:2.16}
		.st14 {fill:#00b050;font-family:Arial;font-size:1.00001em;font-weight:bold}
		.st15 {fill:#000000;stroke:#000000;stroke-linecap:round;stroke-linejoin:round;stroke-width:0.72}
		.st16 {fill:none;stroke:none;stroke-linecap:round;stroke-linejoin:round;stroke-width:0.72}
		.st17 {fill:#000000;font-family:Arial Black;font-size:0.833336em}
		.st18 {fill:#000080;font-family:Arial;font-size:1.00001em}
		.st19 {fill:#ff0000;font-family:Calibri;font-size:0.833336em;font-weight:bold}
		.st20 {fill:#00b050;font-family:Calibri;font-size:0.833336em;font-weight:bold}
		.st21 {stroke:#000000;stroke-dasharray:5.04,3.6;stroke-linecap:round;stroke-linejoin:round;stroke-width:0.72}
		.st22 {fill:#000000;font-family:Arial Black;font-size:1.00001em}
		.st23 {baseline-shift:-32.4941%;font-size:0.649882em}
		.st24 {fill:#ffff00;stroke:none;stroke-linecap:round;stroke-linejoin:round;stroke-width:0.72}
		.st25 {stroke:#000000;stroke-linecap:round;stroke-linejoin:round;stroke-width:0.24}
		.st26 {fill:#000000;font-family:Calibri;font-size:0.75em}
		.st27 {fill:none;fill-rule:evenodd;font-size:12px;overflow:visible;stroke-linecap:square;stroke-miterlimit:3}
	]]>
	</style>

	<defs id="Markers">
		<g id="lend4">
			<path d="M 2 1 L 0 0 L 2 -1 L 2 1 " style="stroke:none"/>
		</g>
		<marker id="mrkr4-14" class="st6" refX="-9" orient="auto" markerUnits="strokeWidth" overflow="visible">
			<use xlink:href="#lend4" transform="scale(-4.5,-4.5) "/>
		</marker>
	</defs>
	<g>
		<title>Page-1</title>
		<g id="shape74-1" transform="translate(219.274,-102.047)">
			<title>Sheet.74</title>
			<path d="M0 160.44 L57.01 217.13 L0.32 217.13 L0 160.44 Z" class="st1"/>
		</g>
		<g id="shape73-3" transform="translate(219.593,-45.3543)">
			<title>Sheet.73</title>
			<desc>Labor Cost</desc>
			<path d="M0 160.44 L56.69 160.44 L56.69 217.13 L0 217.13 L0 160.44 Z" class="st2"/>
			<text x="13" y="185.19" class="st3">Labor <tspan x="16.01" dy="1.2em" class="st4">Cost</tspan></text>		</g>
		<g id="group44-7" transform="translate(35.3407,-45.3543)">
			<title>P-Q.44</title>
			<g id="group45-8" transform="translate(-217.134,217.134) rotate(-90)">
				<title>Y axis.7</title>
				<g id="shape46-9">
					<title>Sheet.46</title>
					<path d="M0 217.13 L123.91 217.13" class="st5"/>
				</g>
				<g id="shape47-15">
					<title>Sheet.47</title>
					<desc>Wage Rate</desc>
					<rect x="0" y="199.134" width="113.386" height="18" class="st7"/>
					<rect x="0" y="199.134" width="113.386" height="18" class="st8"/>
					<text x="76.66" y="211.13" class="st9">Wage Rate</text>				</g>
			</g>
			<g id="group48-19">
				<title>X axis.10</title>
				<g id="shape49-20">
					<title>Sheet.49</title>
					<path d="M0 217.13 L123.91 217.13" class="st5"/>
				</g>
				<g id="shape50-25" transform="translate(7.99361E-15,18)">
					<title>Sheet.50</title>
					<desc>Labor Quantity</desc>
					<rect x="0" y="199.134" width="113.386" height="18" class="st7"/>
					<rect x="0" y="199.134" width="113.386" height="18" class="st8"/>
					<text x="70.86" y="212.13" class="st9">Labor Quantity</text>				</g>
			</g>
		</g>
		<g id="shape51-29" transform="translate(-118.196,18.2427) rotate(-45)">
			<title>Sheet.51</title>
			<desc>S</desc>
			<path d="M0 217.13 L160.35 217.13" class="st10"/>
			<rect x="149.535" y="200.714" width="8.00409" height="14.4001" class="st11"/>
			<text x="149.53" y="211.51" class="st12">S</text>		</g>
		<g id="shape52-34" transform="translate(188.878,-95.1431) rotate(45)">
			<title>Sheet.52</title>
			<desc>D</desc>
			<path d="M0 217.13 L160.35 217.13" class="st13"/>
			<rect x="150.006" y="199.912" width="8.66602" height="14.4001" class="st11"/>
			<text x="150.01" y="210.71" class="st14">D</text>		</g>
		<g id="shape54-39" transform="translate(89.9076,-99.9213)">
			<title>Dot.54</title>
			<ellipse cx="1.97873" cy="215.155" rx="1.97873" ry="1.97873" class="st15"/>
		</g>
		<g id="shape55-41" transform="translate(45.6163,-146.339)">
			<title>Sheet.55</title>
			<desc>Competitive Labor Market</desc>
			<rect x="0" y="192.685" width="88.937" height="24.4488" class="st16"/>
			<text x="11.42" y="201.91" class="st17">Competitive <tspan x="8.08" dy="1.2em" class="st4">Labor Market</tspan></text>		</g>
		<g id="group56-45" transform="translate(219.274,-45.3543)">
			<title>P-Q.56</title>
			<g id="group57-46" transform="translate(-217.134,217.134) rotate(-90)">
				<title>Y axis.7</title>
				<g id="shape58-47">
					<title>Sheet.58</title>
					<path d="M0 217.13 L123.91 217.13" class="st5"/>
				</g>
				<g id="shape59-52">
					<title>Sheet.59</title>
					<desc>Wage Rate</desc>
					<rect x="0" y="199.134" width="113.386" height="18" class="st7"/>
					<rect x="0" y="199.134" width="113.386" height="18" class="st8"/>
					<text x="26.68" y="211.73" class="st18">Wage Rate</text>				</g>
			</g>
			<g id="group60-56">
				<title>X axis.10</title>
				<g id="shape61-57">
					<title>Sheet.61</title>
					<path d="M0 217.13 L123.91 217.13" class="st5"/>
				</g>
				<g id="shape62-62" transform="translate(7.99361E-15,18)">
					<title>Sheet.62</title>
					<desc>Labor Quantity</desc>
					<rect x="0" y="199.134" width="113.386" height="18" class="st7"/>
					<rect x="0" y="199.134" width="113.386" height="18" class="st8"/>
					<text x="17.34" y="213.93" class="st18">Labor Quantity</text>				</g>
			</g>
		</g>
		<g id="shape63-66" transform="translate(219.593,-102.047)">
			<title>Sheet.63</title>
			<desc>Supply = MRC</desc>
			<path d="M0 217.13 L127.56 217.13" class="st10"/>
			<rect x="63.5348" y="202.63" width="57.1825" height="12.0001" class="st11"/>
			<text x="63.53" y="211.63" class="st19">Supply = MRC</text>		</g>
		<g id="shape64-71" transform="translate(372.811,-95.1431) rotate(45)">
			<title>Sheet.64</title>
			<desc>Demand = MRP</desc>
			<path d="M0 217.13 L160.35 217.13" class="st13"/>
			<rect x="98.3435" y="200.886" width="64.3359" height="12.0001" class="st11"/>
			<text x="98.34" y="209.89" class="st20">Demand = MRP</text>		</g>
		<g id="shape66-76" transform="translate(274.03,-99.9213)">
			<title>Dot.66</title>
			<ellipse cx="1.97873" cy="215.155" rx="1.97873" ry="1.97873" class="st15"/>
		</g>
		<g id="shape67-78" transform="translate(229.549,-146.339)">
			<title>Sheet.67</title>
			<desc>Labor Supply for 1 Firm</desc>
			<rect x="0" y="192.685" width="88.937" height="24.4488" class="st16"/>
			<text x="8.91" y="201.91" class="st17">Labor Supply <tspan x="18.08" dy="1.2em" class="st4">for 1 Firm</tspan></text>		</g>
		<g id="shape68-82" transform="translate(35.3407,-46.0276)">
			<title>Sheet.68</title>
			<path d="M56.69 217.13 L56.69 161.11 L0 161.11" class="st21"/>
		</g>
		<g id="shape65-85" transform="translate(493.419,115.087) rotate(90)">
			<title>Sheet.65</title>
			<path d="M0 217.13 L56.69 217.13" class="st21"/>
		</g>
		<g id="shape69-88" transform="translate(0.36,-83.4027)">
			<title>Sheet.69</title>
			<desc>Wc</desc>
			<rect x="0" y="179.845" width="49.1539" height="37.2892" class="st16"/>
			<text x="15.98" y="202.09" class="st22">W<tspan dy="-0.402em" class="st23">c</tspan></text>		</g>
		<g id="shape70-92" transform="translate(68.1653,-17.0079)">
			<title>Sheet.70</title>
			<desc>Qc</desc>
			<rect x="0" y="179.845" width="49.1539" height="37.2892" class="st16"/>
			<text x="16.98" y="202.09" class="st22">Q<tspan dy="-0.402em" class="st23">c</tspan></text>		</g>
		<g id="shape71-96" transform="translate(35.3407,-180.513)">
			<title>NumberBox.71</title>
			<desc>1.</desc>
			<rect x="0" y="186.979" width="26.3859" height="30.1553" class="st24"/>
			<text x="8.19" y="205.66" class="st3">1.</text>		</g>
		<g id="shape72-99" transform="translate(219.593,-179.608)">
			<title>NumberBox.72</title>
			<desc>2.</desc>
			<rect x="0" y="186.979" width="26.3859" height="30.1553" class="st24"/>
			<text x="8.19" y="205.66" class="st3">2.</text>		</g>
		<g id="shape75-102" transform="translate(195.215,83.9955) rotate(-90)">
			<title>Side line callout</title>
			<desc>Total Marginal Revenue Product by All Workers Minus Their Cost.</desc>
			<path d="M-11.25 38.55 L25.6 132.09" class="st25"/>
			<path d="M0 132.09 L51.2 132.09" class="st25"/>
			<text x="136.09" y="-39.1" transform="rotate(90)" class="st26">Total Marginal <tspan x="136.09" dy="1.2em" class="st4">Revenue Product by </tspan><tspan
						x="136.09" dy="1.2em" class="st4">All Workers Minus </tspan><tspan x="136.09" dy="1.2em" class="st4">Their Cost.</tspan></text>		</g>
	</g>
</svg>
